<svg width="140" height="140" viewBox="0 0 140 140" fill="none" xmlns="http://www.w3.org/2000/svg">
<ellipse cx="69.6316" cy="70" rx="69.6316" ry="70" fill="#9B59FE"/>
<path fill-rule="evenodd" clip-rule="evenodd" d="M59.2748 80.7252C58.5751 80.0255 58.5751 78.8911 59.2748 78.1914L77.1914 60.2748C77.8911 59.5751 79.0255 59.5751 79.7252 60.2748C80.4249 60.9745 80.4249 62.1089 79.7252 62.8086L61.8086 80.7252C61.1089 81.4249 59.9745 81.4249 59.2748 80.7252Z" fill="white"/>
<path fill-rule="evenodd" clip-rule="evenodd" d="M78.4583 81.25C77.4688 81.25 76.6667 80.4478 76.6667 79.4583V63.3333H60.5417C59.5522 63.3333 58.75 62.5312 58.75 61.5417C58.75 60.5522 59.5522 59.75 60.5417 59.75H78.4583C79.4478 59.75 80.25 60.5522 80.25 61.5417V79.4583C80.25 80.4478 79.4478 81.25 78.4583 81.25Z" fill="white"/>
<circle cx="69.6309" cy="69.6309" r="62.6316" stroke="white" stroke-opacity="0.51" stroke-width="0.736842"/>
</svg>
