<svg width="132" height="114" viewBox="0 0 132 114" fill="none" xmlns="http://www.w3.org/2000/svg">
<path fill-rule="evenodd" clip-rule="evenodd" d="M18.7603 71.6641C7.15244 67.8796 0 62.7055 0 57C0 51.2944 7.15244 46.1203 18.7603 42.3358C13.0738 39.5401 9.77232 36.2076 9.77232 32.6297C9.77232 27.9314 15.4652 23.6561 24.776 20.464C22.6363 18.8056 21.4565 16.9896 21.4565 15.0859C21.4565 7.27505 41.3181 0.940081 65.8497 0.914296L66 0L66.1503 0.914296C90.6819 0.940085 110.543 7.27505 110.543 15.0859C110.543 16.9896 109.364 18.8056 107.224 20.464C116.535 23.6561 122.228 27.9314 122.228 32.6297C122.228 36.2076 118.926 39.5401 113.24 42.3358C124.848 46.1204 132 51.2944 132 57C132 62.7055 124.848 67.8796 113.24 71.6641C118.926 74.4598 122.228 77.7924 122.228 81.3703C122.228 86.0686 116.535 90.3439 107.224 93.536C109.364 95.1944 110.543 97.0104 110.543 98.9141C110.543 106.725 90.6819 113.06 66.1503 113.086L66 114L65.8497 113.086C41.3181 113.06 21.4565 106.725 21.4565 98.9141C21.4565 97.0104 22.6363 95.1943 24.7761 93.5359C15.4652 90.3438 9.77232 86.0686 9.77232 81.3703C9.77232 77.7924 13.0738 74.4598 18.7603 71.6641ZM9.09783 57L51.8435 49.947C39.6837 48.9437 29.1221 46.6782 21.6225 43.6163C21.0577 43.7836 20.5025 43.9541 19.9573 44.1275C14.1 45.991 9.51017 48.1664 6.42907 50.484C3.31221 52.8285 2.06917 55.0521 2.06917 57C2.06917 58.9479 3.31221 61.1715 6.42907 63.516C9.51017 65.8336 14.1 68.0089 19.9573 69.8724C20.5025 70.0459 21.0577 70.2163 21.6225 70.3837C29.1221 67.3218 39.6837 65.0563 51.8434 64.053L9.09783 57ZM110.378 70.3837C110.942 70.2163 111.498 70.0459 112.043 69.8725C117.9 68.0089 122.49 65.8336 125.571 63.516C128.688 61.1715 129.931 58.9479 129.931 57C129.931 55.0521 128.688 52.8285 125.571 50.484C122.49 48.1664 117.9 45.9911 112.043 44.1275C111.498 43.9541 110.942 43.7836 110.378 43.6163C102.878 46.6782 92.3163 48.9437 80.1565 49.947L122.902 57L80.1566 64.053C92.3164 65.0563 102.878 67.3218 110.378 70.3837ZM110.256 41.4219C112.832 40.3257 114.95 39.1511 116.567 37.9355C119.189 35.9629 120.159 34.1483 120.159 32.6297C120.159 31.1111 119.189 29.2964 116.567 27.3239C113.98 25.3783 110.106 23.5379 105.133 21.9557L105.027 21.9223C98.1748 25.8737 85.5658 28.6732 70.7976 29.1764L71.9337 36.0855C86.6211 36.5019 99.9243 38.449 110.256 41.4219ZM72.2763 38.1692C85.4165 38.5675 97.376 40.2027 106.995 42.6814C106.392 42.8929 105.772 43.1004 105.133 43.3037C96.951 45.9067 86.1086 47.7134 73.9367 48.2671L72.2763 38.1692ZM59.7237 38.1692L58.0633 48.2671C45.8915 47.7133 35.049 45.9067 26.8674 43.3037C26.2284 43.1004 25.6076 42.8929 25.0053 42.6814C34.6241 40.2027 46.5835 38.5675 59.7237 38.1692ZM60.0663 36.0855C45.3789 36.5019 32.0758 38.449 21.7439 41.4219C19.1684 40.3257 17.0496 39.1511 15.4334 37.9355C12.8111 35.9629 11.8415 34.1483 11.8415 32.6297C11.8415 31.1111 12.8111 29.2964 15.4334 27.3239C18.02 25.3783 21.8943 23.5379 26.8674 21.9557L26.9726 21.9223C33.8253 25.8737 46.4342 28.6732 61.2024 29.1764L60.0663 36.0855ZM106.995 71.3186C97.376 73.7972 85.4165 75.4324 72.2763 75.8308L73.9367 65.7328C86.1086 66.2866 96.951 68.0932 105.133 70.6963C105.772 70.8996 106.392 71.1071 106.995 71.3186ZM71.9337 77.9145C86.6211 77.4981 99.9243 75.551 110.256 72.578C112.832 73.6742 114.95 74.8488 116.567 76.0645C119.189 78.037 120.159 79.8517 120.159 81.3703C120.159 82.8889 119.189 84.7035 116.567 86.6761C113.98 88.6217 110.106 90.4621 105.133 92.0443L105.027 92.0777C98.1747 88.1263 85.5658 85.3268 70.7976 84.8236L71.9337 77.9145ZM60.0663 77.9145L61.2024 84.8236C46.4342 85.3268 33.8253 88.1263 26.9726 92.0777L26.8674 92.0443C21.8943 90.4621 18.02 88.6217 15.4334 86.6761C12.8111 84.7035 11.8415 82.8889 11.8415 81.3703C11.8415 79.8516 12.8111 78.037 15.4334 76.0645C17.0496 74.8488 19.1684 73.6742 21.7439 72.5781C32.0758 75.551 45.3789 77.4981 60.0663 77.9145ZM59.7237 75.8308C46.5835 75.4324 34.6241 73.7972 25.0053 71.3186C25.6076 71.1071 26.2284 70.8996 26.8674 70.6963C35.049 68.0932 45.8914 66.2866 58.0633 65.7328L59.7237 75.8308ZM105.801 18.9447C105.478 19.1875 105.128 19.4287 104.752 19.6678C95.2123 16.7798 82.4877 14.9469 68.4265 14.757L66.4913 2.9878C78.4421 3.02948 89.1681 4.58991 96.8706 7.04049C100.787 8.28636 103.805 9.72621 105.801 11.2271C107.832 12.7549 108.474 14.0806 108.474 15.0859C108.474 16.0913 107.832 17.4169 105.801 18.9447ZM102.17 21.0798C93.1836 18.6126 81.5745 17.0347 68.7682 16.8349L70.4584 27.1137C80.8069 26.7816 90.0309 25.3074 96.8706 23.1313C98.8785 22.4925 100.651 21.8027 102.17 21.0798ZM61.5416 27.1137L63.2318 16.8349C50.4255 17.0347 38.8165 18.6126 29.8304 21.0798C31.3495 21.8027 33.1215 22.4925 35.1293 23.1313C41.9691 25.3074 51.1931 26.7816 61.5416 27.1137ZM27.2476 19.6678C36.7877 16.7798 49.5123 14.9469 63.5735 14.757L65.5087 2.9878C53.5579 3.02948 42.8319 4.5899 35.1293 7.04049C31.2134 8.28636 28.1948 9.7262 26.1994 11.2271C24.1683 12.7549 23.5257 14.0805 23.5257 15.0859C23.5257 16.0913 24.1683 17.4169 26.1994 18.9447C26.5222 19.1875 26.8718 19.4287 27.2476 19.6678ZM27.2477 94.3322C26.8718 94.5712 26.5222 94.8125 26.1994 95.0553C24.1683 96.5831 23.5257 97.9087 23.5257 98.9141C23.5257 99.9195 24.1683 101.245 26.1994 102.773C28.1948 104.274 31.2134 105.714 35.1293 106.96C42.8319 109.41 53.5579 110.971 65.5087 111.012L63.5735 99.243C49.5123 99.053 36.7877 97.2201 27.2477 94.3322ZM63.2318 97.1651C50.4256 96.9653 38.8165 95.3873 29.8305 92.9202C31.3495 92.1973 33.1215 91.5075 35.1293 90.8687C41.9691 88.6926 51.1931 87.2184 61.5416 86.8863L63.2318 97.1651ZM68.4265 99.243L66.4913 111.012C78.4421 110.971 89.1681 109.41 96.8706 106.96C100.787 105.714 103.805 104.274 105.801 102.773C107.832 101.245 108.474 99.9195 108.474 98.9141C108.474 97.9087 107.832 96.5831 105.801 95.0553C105.478 94.8125 105.128 94.5713 104.752 94.3322C95.2123 97.2201 82.4877 99.0531 68.4265 99.243ZM102.17 92.9202C93.1835 95.3874 81.5744 96.9653 68.7682 97.1651L70.4584 86.8863C80.8069 87.2184 90.0309 88.6926 96.8706 90.8687C98.8785 91.5075 100.65 92.1973 102.17 92.9202Z" fill="white"/>
</svg>
