<svg width="132" height="132" viewBox="0 0 132 132" fill="none" xmlns="http://www.w3.org/2000/svg">
<path fill-rule="evenodd" clip-rule="evenodd" d="M45.1904 45.1904C35.4682 46.2452 26.7502 48.0199 19.6371 50.3246C13.6913 52.2511 8.82405 54.5615 5.42705 57.1637C2.04129 59.7574 0 62.7363 0 66C0 69.2637 2.04129 72.2426 5.42705 74.8362C8.82405 77.4385 13.6913 79.7489 19.6371 81.6754C26.7502 83.9801 35.4682 85.7547 45.1904 86.8096C46.2452 96.5318 48.0199 105.25 50.3246 112.363C52.2511 118.309 54.5615 123.176 57.1637 126.573C59.7574 129.959 62.7363 132 66 132C69.2637 132 72.2426 129.959 74.8362 126.573C77.4385 123.176 79.7489 118.309 81.6754 112.363C83.9801 105.25 85.7547 96.5318 86.8096 86.8096C96.5318 85.7547 105.25 83.9801 112.363 81.6754C118.309 79.7489 123.176 77.4385 126.573 74.8362C129.959 72.2426 132 69.2637 132 66C132 62.7363 129.959 59.7574 126.573 57.1637C123.176 54.5615 118.309 52.2511 112.363 50.3246C105.25 48.0199 96.5318 46.2452 86.8096 45.1904C85.7547 35.4682 83.9801 26.7502 81.6754 19.6371C79.7489 13.6913 77.4385 8.82404 74.8362 5.42704C72.2426 2.04129 69.2637 0 66 0C62.7363 0 59.7574 2.04129 57.1637 5.42704C54.5615 8.82404 52.2511 13.6913 50.3246 19.6371C48.0199 26.7502 46.2452 35.4682 45.1904 45.1904ZM46.5872 46.5872C46.0775 51.6184 45.7604 56.9159 45.6634 62.3972L60.0307 60.0307L62.3972 45.6634C56.9159 45.7604 51.6184 46.0775 46.5872 46.5872ZM45.028 46.7522C44.5239 51.8206 44.2138 57.1476 44.124 62.6508L23.7907 66L44.124 69.3492C44.2138 74.8524 44.5239 80.1794 45.028 85.2477C35.5281 84.1986 27.0306 82.4575 20.1102 80.2152C14.2512 78.3168 9.56533 76.0728 6.36044 73.6178C3.14429 71.1541 1.53488 68.5728 1.53488 66C1.53488 63.4272 3.14429 60.8459 6.36044 58.3822C9.56533 55.9271 14.2512 53.6831 20.1102 51.7848C27.0306 49.5425 35.5281 47.8014 45.028 46.7522ZM46.7522 45.028C51.8206 44.5239 57.1476 44.2138 62.6508 44.124L66 23.7907L69.3492 44.124C74.8524 44.2138 80.1794 44.5239 85.2477 45.028C84.1986 35.5281 82.4575 27.0306 80.2152 20.1102C78.3168 14.2512 76.0729 9.56533 73.6178 6.36044C71.1541 3.14429 68.5728 1.53488 66 1.53488C63.4272 1.53488 60.8459 3.14429 58.3822 6.36044C55.9271 9.56533 53.6831 14.2512 51.7848 20.1102C49.5425 27.0306 47.8014 35.5281 46.7522 45.028ZM85.4128 46.5872C80.3816 46.0775 75.0841 45.7604 69.6028 45.6634L71.9693 60.0307L86.3366 62.3972C86.2395 56.9159 85.9225 51.6184 85.4128 46.5872ZM86.9719 46.7522C87.4761 51.8206 87.7862 57.1476 87.876 62.6508L108.209 66L87.876 69.3492C87.7862 74.8524 87.4761 80.1794 86.9719 85.2477C96.4719 84.1986 104.969 82.4575 111.89 80.2152C117.749 78.3168 122.435 76.0729 125.64 73.6178C128.856 71.1541 130.465 68.5728 130.465 66C130.465 63.4272 128.856 60.8459 125.64 58.3822C122.435 55.9271 117.749 53.6831 111.89 51.7848C104.969 49.5425 96.4719 47.8014 86.9719 46.7522ZM85.4128 85.4128C85.9225 80.3816 86.2395 75.0841 86.3366 69.6028L71.9693 71.9693L69.6028 86.3366C75.0841 86.2395 80.3816 85.9225 85.4128 85.4128ZM62.6508 87.876L66 108.209L69.3492 87.876C74.8524 87.7862 80.1794 87.4761 85.2477 86.9719C84.1986 96.4719 82.4575 104.969 80.2152 111.89C78.3168 117.749 76.0729 122.435 73.6178 125.64C71.1541 128.856 68.5728 130.465 66 130.465C63.4272 130.465 60.8459 128.856 58.3822 125.64C55.9271 122.435 53.6831 117.749 51.7848 111.89C49.5425 104.969 47.8014 96.4719 46.7522 86.9719C51.8206 87.4761 57.1476 87.7861 62.6508 87.876ZM62.3972 86.3366L60.0307 71.9693L45.6634 69.6028C45.7604 75.0841 46.0775 80.3816 46.5872 85.4128C51.6184 85.9225 56.9159 86.2395 62.3972 86.3366Z" fill="white"/>
</svg>
