<svg width="27" height="24" viewBox="0 0 27 24" fill="none" xmlns="http://www.w3.org/2000/svg">
<g clip-path="url(#clip0_3066_1967)">
<path d="M6.26844 15.3478L4.84633 23.1238C4.77219 23.5318 5.08222 23.9218 5.54054 23.9878C5.72925 24.0178 5.92471 23.9878 6.08647 23.9038L13.5003 20.2558L20.9142 23.9038C21.0423 23.9638 21.1771 23.9938 21.3254 23.9938C21.7904 23.9938 22.1678 23.6578 22.1678 23.2438C22.1678 23.2018 22.1611 23.1658 22.1544 23.1238L20.7323 15.3418L26.7645 9.83984C27.088 9.54584 27.0812 9.06584 26.751 8.77784C26.6229 8.66984 26.4612 8.59784 26.2927 8.57384L17.9891 7.44584L14.262 0.395839C14.0261 0.023839 13.4869 -0.108161 13.069 0.101839C12.9275 0.173839 12.8129 0.275839 12.7387 0.395839L9.01832 7.44584L0.714775 8.57984C0.256462 8.63984 -0.0603128 9.02384 0.00708613 9.43784C0.0340457 9.59384 0.114924 9.73784 0.236242 9.85184L6.26844 15.3478Z" fill="#FFD542"/>
</g>
<defs>
<clipPath id="clip0_3066_1967">
<rect width="27" height="24" fill="white"/>
</clipPath>
</defs>
</svg>
