<svg width="132" height="132" viewBox="0 0 132 132" fill="none" xmlns="http://www.w3.org/2000/svg">
<path fill-rule="evenodd" clip-rule="evenodd" d="M85.5074 33C85.5074 41.8653 83.2131 49.8194 79.5849 55.5093C78.3045 57.5173 76.8756 59.2209 75.3387 60.5857L71.9693 60.0307L66 23.7907L60.0307 60.0307L56.6612 60.5857C55.1244 59.2209 53.6954 57.5173 52.415 55.5093C48.7868 49.8194 46.4925 41.8653 46.4925 33C46.4925 24.1347 48.7868 16.1806 52.415 10.4907C56.0545 4.78292 60.8946 1.53488 66 1.53488C71.1053 1.53488 75.9454 4.78292 79.5849 10.4907C83.2131 16.1806 85.5074 24.1347 85.5074 33ZM54.7567 60.8994C48.8675 55.0501 44.9576 44.7411 44.9576 33C44.9576 14.7746 54.3786 0 66 0C77.6213 0 87.0423 14.7746 87.0423 33C87.0423 44.7411 83.1324 55.0501 77.2432 60.8994L75.3387 60.5857C72.5071 63.1004 69.3092 64.4651 66 64.4651C62.6907 64.4651 59.4928 63.1004 56.6612 60.5857L54.7567 60.8994ZM66 66C61.8653 66 58.0091 64.1298 54.7567 60.8994L23.7907 66L54.7567 71.1006C48.8675 76.9499 44.9576 87.2589 44.9576 99C44.9576 117.225 54.3786 132 66 132C77.6213 132 87.0423 117.225 87.0423 99C87.0423 87.2589 83.1324 76.9499 77.2432 71.1006L108.209 66L77.2432 60.8994C73.9908 64.1298 70.1346 66 66 66ZM75.3387 71.4143L77.2432 71.1006C73.9908 67.8702 70.1346 66 66 66C61.8653 66 58.0091 67.8702 54.7567 71.1006L56.6612 71.4143C55.1244 72.7791 53.6954 74.4827 52.415 76.4907C48.7868 82.1806 46.4925 90.1347 46.4925 99C46.4925 107.865 48.7868 115.819 52.415 121.509C56.0545 127.217 60.8946 130.465 66 130.465C71.1053 130.465 75.9454 127.217 79.5849 121.509C83.2131 115.819 85.5074 107.865 85.5074 99C85.5074 90.1347 83.2131 82.1806 79.5849 76.4907C78.3045 74.4827 76.8756 72.7791 75.3387 71.4143ZM75.3387 71.4143C72.5071 68.8996 69.3092 67.5349 66 67.5349C62.6907 67.5349 59.4928 68.8996 56.6612 71.4143L60.0307 71.9693L66 108.209L71.9693 71.9693L75.3387 71.4143ZM10.4907 79.585C16.1806 83.2131 24.1347 85.5074 33 85.5074C41.8653 85.5074 49.8194 83.2131 55.5093 79.585C61.2171 75.9454 64.4651 71.1054 64.4651 66C64.4651 60.8946 61.2171 56.0546 55.5093 52.415C49.8194 48.7868 41.8653 46.4926 33 46.4926C24.1347 46.4926 16.1806 48.7868 10.4907 52.415C4.78292 56.0545 1.53488 60.8946 1.53488 66C1.53488 71.1054 4.78292 75.9454 10.4907 79.585ZM0 66C-5.07985e-07 77.6213 14.7746 87.0423 33 87.0423C51.2254 87.0423 66 77.6213 66 66C66 54.3787 51.2254 44.9577 33 44.9577C14.7746 44.9577 5.07985e-07 54.3787 0 66ZM76.4907 79.585C82.1806 83.2131 90.1347 85.5074 99 85.5074C107.865 85.5074 115.819 83.2131 121.509 79.585C127.217 75.9454 130.465 71.1054 130.465 66C130.465 60.8946 127.217 56.0546 121.509 52.415C115.819 48.7868 107.865 46.4926 99 46.4926C90.1347 46.4926 82.1806 48.7869 76.4907 52.415C70.7829 56.0546 67.5349 60.8946 67.5349 66C67.5349 71.1054 70.7829 75.9454 76.4907 79.585ZM66 66C66 77.6213 80.7746 87.0423 99 87.0423C117.225 87.0423 132 77.6213 132 66C132 54.3787 117.225 44.9577 99 44.9577C80.7746 44.9577 66 54.3787 66 66Z" fill="white"/>
</svg>
