<svg width="76" height="126" viewBox="0 0 76 126" fill="none" xmlns="http://www.w3.org/2000/svg">
<g opacity="0.5">
<path d="M38.0004 29.8438L42.6483 58.3103L70.8661 62.9992L42.6483 67.6881L38.0004 96.1547L33.3525 67.6881L5.13477 62.9992L33.3525 58.3103L38.0004 29.8438Z" fill="white"/>
<path fill-rule="evenodd" clip-rule="evenodd" d="M12.3489 19.4696C5.71809 30.5807 1.59746 45.9693 1.59746 62.9993C1.59746 80.0293 5.71809 95.4179 12.3489 106.529C18.9867 117.652 28.074 124.396 37.9999 124.396C47.9258 124.396 57.0131 117.652 63.6509 106.529C70.2817 95.4179 74.4023 80.0293 74.4023 62.9993C74.4023 45.9693 70.2817 30.5807 63.6509 19.4696C57.0131 8.34685 47.9258 1.60214 37.9999 1.60214C28.074 1.60214 18.9867 8.34685 12.3489 19.4696ZM11.325 18.8478C18.0786 7.53094 27.4913 0.396484 37.9999 0.396484C48.5085 0.396484 57.9212 7.53094 64.6748 18.8478C71.4354 30.1763 75.5975 45.7877 75.5975 62.9993C75.5975 80.211 71.4354 95.8223 64.6748 107.151C57.9212 118.468 48.5085 125.602 37.9999 125.602C27.4913 125.602 18.0786 118.468 11.325 107.151C4.56445 95.8223 0.402344 80.211 0.402344 62.9993C0.402344 45.7877 4.56445 30.1763 11.325 18.8478Z" fill="white"/>
</g>
</svg>
