<svg width="84" height="136" viewBox="0 0 84 136" fill="none" xmlns="http://www.w3.org/2000/svg">
<g opacity="0.5">
<path fill-rule="evenodd" clip-rule="evenodd" d="M20.4808 65.175L3.32531 68L19.7208 70.6998C2.73585 103.097 -4.69354 130.888 3.08737 135.38C9.61582 139.148 24.9996 125.444 41.3438 102.681L42 106.664L43.0531 100.272C43.4536 99.7011 43.8544 99.125 44.2555 98.5437C51.0927 103.734 57.671 105.65 62.2255 103.022C69.1347 99.0338 69.3121 85.7846 63.5192 70.825L80.6747 68L64.2792 65.3002C81.2642 32.9025 88.6935 5.11152 80.9126 0.620483C74.3842 -3.14765 59.0004 10.5561 42.6562 33.3192L42 29.3363L40.9469 35.728C40.5465 36.2989 40.1456 36.875 39.7445 37.4562C32.9073 32.2656 26.329 30.3495 21.7745 32.9783C14.8654 36.9662 14.6879 50.2154 20.4808 65.175ZM24.6141 121.121C29.7485 115.65 35.3298 108.729 41.0198 100.714L40.0767 94.9906C35.1987 90.3985 30.3706 84.2852 26.2243 77.1056C25.0986 75.1564 24.0661 73.203 23.1285 71.261L21.1828 70.9406C13.6313 85.2931 7.96775 98.7299 4.67562 109.613C2.59856 116.479 1.48913 122.253 1.4108 126.566C1.37163 128.723 1.59239 130.44 2.02959 131.722C2.46287 132.991 3.07746 133.75 3.79055 134.162C4.50363 134.574 5.46864 134.726 6.78508 134.466C8.1134 134.204 9.71183 133.537 11.5608 132.424C15.2578 130.2 19.7046 126.353 24.6141 121.121ZM24.8319 71.5415C25.6351 73.157 26.5054 74.7804 27.4422 76.4026C31.1469 82.8174 35.389 88.342 39.6921 92.6562L36.5306 73.4679L24.8319 71.5415ZM43.9445 96.5118C43.8646 96.447 43.7848 96.3818 43.7049 96.3161L47.4694 73.4679L59.326 71.5155C58.4255 73.137 57.5025 74.7667 56.5578 76.4026C52.4164 83.5738 48.1665 90.3245 43.9445 96.5118ZM45.0523 97.3832C45.3584 97.6163 45.6637 97.8425 45.9682 98.0617C52.4044 102.695 57.9433 103.87 61.5223 101.804C65.1014 99.7383 66.853 94.3554 66.0575 86.4665C65.592 81.8507 64.2641 76.5818 62.101 71.0585L61.0941 71.2243C60.02 73.1738 58.9135 75.1355 57.7758 77.1056C53.6017 84.3332 49.3147 91.1412 45.0523 97.3832ZM60.8716 64.7391L62.8172 65.0594C70.3686 50.707 76.0322 37.2701 79.3244 26.3871C81.4014 19.5209 82.5109 13.7473 82.5892 9.43427C82.6284 7.27728 82.4076 5.55951 81.9704 4.27847C81.5371 3.0089 80.9225 2.24966 80.2095 1.83807C79.4964 1.42649 78.5314 1.27401 77.2149 1.53367C75.8866 1.79568 74.2882 2.46343 72.4392 3.57584C68.7422 5.80014 64.2954 9.64747 59.3859 14.8789C54.2515 20.3499 48.6702 27.2706 42.9802 35.2855L43.9233 41.0093C48.8013 45.6015 53.6294 51.7148 57.7758 58.8945C58.9014 60.8436 59.9339 62.797 60.8716 64.7391ZM44.3079 43.3438C48.611 47.6579 52.8532 53.1826 56.5578 59.5974C57.4946 61.2196 58.365 62.8431 59.1682 64.4586L47.4694 62.5321L44.3079 43.3438ZM40.0555 39.4882C40.1354 39.553 40.2152 39.6182 40.2951 39.6839L36.5306 62.5321L24.674 64.4846C25.5745 62.8631 26.4975 61.2333 27.4422 59.5974C31.5836 52.4262 35.8335 45.6754 40.0555 39.4882ZM38.9477 38.6168C34.6853 44.8588 30.3983 51.6668 26.2242 58.8945C25.0865 60.8645 23.98 62.8262 22.9058 64.7757L21.899 64.9415C19.7359 59.4182 18.408 54.1493 17.9425 49.5335C17.147 41.6446 18.8986 36.2617 22.4777 34.1959C26.0567 32.1302 31.5956 33.3051 38.0318 37.9383C38.3363 38.1575 38.6417 38.3837 38.9477 38.6168Z" fill="white"/>
</g>
</svg>
